<svg xmlns="http://www.w3.org/2000/svg" xmlns:xlink="http://www.w3.org/1999/xlink" version="1.1" width="1000" height="1000" viewBox="0 0 1000 1000" xml:space="preserve">
<desc>Created with Fabric.js 3.5.0</desc>
<defs>
</defs>
<rect x="0" y="0" width="100%" height="100%" fill="#ffffff"/>
<g transform="matrix(-15.949 0 0 -15.949 499.999 499.999)" id="118278">
<g style="" vector-effect="non-scaling-stroke">
		<g transform="matrix(1 0 0 1 -10 3)" id="Capa_1">
<circle style="stroke: none; stroke-width: 1; stroke-dasharray: none; stroke-linecap: butt; stroke-dashoffset: 0; stroke-linejoin: miter; stroke-miterlimit: 4; is-custom-font: none; font-file-url: none; fill: rgb(189,195,199); fill-rule: nonzero; opacity: 1;" cx="0" cy="0" r="5.5"/>
</g>
		<g transform="matrix(1 0 0 1 -10 3)" id="Capa_1">
<path style="stroke: none; stroke-width: 1; stroke-dasharray: none; stroke-linecap: butt; stroke-dashoffset: 0; stroke-linejoin: miter; stroke-miterlimit: 4; is-custom-font: none; font-file-url: none; fill: rgb(189,195,199); fill-rule: nonzero; opacity: 1;" transform=" translate(-18.5, -31.5)" d="M 18.5 38 c -3.584 0 -6.5 -2.916 -6.5 -6.5 s 2.916 -6.5 6.5 -6.5 s 6.5 2.916 6.5 6.5 S 22.084 38 18.5 38 z M 18.5 27 c -2.481 0 -4.5 2.019 -4.5 4.5 s 2.019 4.5 4.5 4.5 s 4.5 -2.019 4.5 -4.5 S 20.981 27 18.5 27 z" stroke-linecap="round"/>
</g>
		<g transform="matrix(1 0 0 1 7 3)" id="Capa_1">
<circle style="stroke: none; stroke-width: 1; stroke-dasharray: none; stroke-linecap: butt; stroke-dashoffset: 0; stroke-linejoin: miter; stroke-miterlimit: 4; is-custom-font: none; font-file-url: none; fill: rgb(189,195,199); fill-rule: nonzero; opacity: 1;" cx="0" cy="0" r="5.5"/>
</g>
		<g transform="matrix(1 0 0 1 7 3)" id="Capa_1">
<path style="stroke: none; stroke-width: 1; stroke-dasharray: none; stroke-linecap: butt; stroke-dashoffset: 0; stroke-linejoin: miter; stroke-miterlimit: 4; is-custom-font: none; font-file-url: none; fill: rgb(189,195,199); fill-rule: nonzero; opacity: 1;" transform=" translate(-35.5, -31.5)" d="M 35.5 38 c -3.584 0 -6.5 -2.916 -6.5 -6.5 s 2.916 -6.5 6.5 -6.5 s 6.5 2.916 6.5 6.5 S 39.084 38 35.5 38 z M 35.5 27 c -2.481 0 -4.5 2.019 -4.5 4.5 s 2.019 4.5 4.5 4.5 s 4.5 -2.019 4.5 -4.5 S 37.981 27 35.5 27 z" stroke-linecap="round"/>
</g>
		<g transform="matrix(1 0 0 1 -9 -4)" id="Capa_1">
<path style="stroke: none; stroke-width: 1; stroke-dasharray: none; stroke-linecap: butt; stroke-dashoffset: 0; stroke-linejoin: miter; stroke-miterlimit: 4; is-custom-font: none; font-file-url: none; fill: rgb(189,195,199); fill-rule: nonzero; opacity: 1;" transform=" translate(-19.5, -24.5)" d="M 13 32 c -0.553 0 -1 -0.447 -1 -1 c 0 -7.72 6.28 -14 14 -14 c 0.553 0 1 0.447 1 1 s -0.447 1 -1 1 c -6.617 0 -12 5.383 -12 12 C 14 31.553 13.553 32 13 32 z" stroke-linecap="round"/>
</g>
		<g transform="matrix(1 0 0 1 8 -4)" id="Capa_1">
<path style="stroke: none; stroke-width: 1; stroke-dasharray: none; stroke-linecap: butt; stroke-dashoffset: 0; stroke-linejoin: miter; stroke-miterlimit: 4; is-custom-font: none; font-file-url: none; fill: rgb(189,195,199); fill-rule: nonzero; opacity: 1;" transform=" translate(-36.5, -24.5)" d="M 30 32 c -0.553 0 -1 -0.447 -1 -1 c 0 -7.72 6.28 -14 14 -14 c 0.553 0 1 0.447 1 1 s -0.447 1 -1 1 c -6.617 0 -12 5.383 -12 12 C 31 31.553 30.553 32 30 32 z" stroke-linecap="round"/>
</g>
</g>
</g>
</svg>